<?xml version="1.0" encoding="utf-8"?>
<!-- Generator: Adobe Illustrator 22.0.1, SVG Export Plug-In . SVG Version: 6.00 Build 0)  -->
<svg width="64px" height="64px" viewBox="0 0 64 64" version="1.1" xmlns="http://www.w3.org/2000/svg" xmlns:xlink="http://www.w3.org/1999/xlink">
    <!-- Generator: Sketch 60.1 (88133) - https://sketch.com -->
    <title>Artboard</title>
    <desc>Created with Sketch.</desc>
    <g id="Artboard" stroke="none" stroke-width="1" fill="none" fill-rule="evenodd">
        <path d="M63.6693371,30.7004376 C57.539092,18.8691509 45.325136,11.4415495 32,11.4415495 C18.674864,11.4415495 6.46090795,18.8691509 0.330662852,30.7004376 C-0.110220951,31.5107229 -0.110220951,32.4892771 0.330662852,33.2995624 C6.46090795,45.1308491 18.674864,52.5584505 32,52.5584505 C45.325136,52.5584505 57.539092,45.1308491 63.6693371,33.2995624 C64.110221,32.4892771 64.110221,31.5107229 63.6693371,30.7004376 Z M32,46.9750297 C21.2848145,46.9983466 11.3734841,41.2955195 6.00875108,32.0199933 C11.3770855,22.7437279 21.2823457,17.0316872 32,17.0316872 C42.7176543,17.0316872 52.6229145,22.7437279 57.9912489,32.0199933 C52.6204773,41.2894651 42.7129859,46.9900832 32,46.9750297 Z M32,20.823763 C25.8164927,20.823763 20.8037697,25.836486 20.8037697,32.0199933 C20.8037697,38.2035005 25.8164927,43.2162236 32,43.2162236 C38.1835073,43.2162236 43.1962303,38.2035005 43.1962303,32.0199933 C43.1962303,29.0505684 42.0166309,26.2027634 39.9169304,24.1030629 C37.8172299,22.0033624 34.9694249,20.823763 32,20.823763 Z M32,37.6181084 C28.9082464,37.6181084 26.4018848,35.1117469 26.4018848,32.0199933 C26.4018848,28.9282396 28.9082464,26.4218781 32,26.4218781 C35.0917536,26.4218781 37.5981152,28.9282396 37.5981152,32.0199933 C37.5981152,33.5047057 37.0083154,34.9286082 35.9584652,35.9784585 C34.9086149,37.0283087 33.4847125,37.6181084 32,37.6181084 L32,37.6181084 Z" id="Shape" fill="#264966" fill-rule="nonzero"></path>
    </g>
</svg>