<?xml version="1.0" encoding="UTF-8"?>
<svg width="16px" height="16px" viewBox="0 0 16 16" version="1.1" xmlns="http://www.w3.org/2000/svg" xmlns:xlink="http://www.w3.org/1999/xlink">
    <!-- Generator: Sketch 60.1 (88133) - https://sketch.com -->
    <title>my_location-24px</title>
    <desc>Created with Sketch.</desc>
    <g id="Consume" stroke="none" stroke-width="1" fill="none" fill-rule="evenodd">
        <g id="9" transform="translate(-1095.000000, -562.000000)">
            <g id="Group-25" transform="translate(1078.000000, -104.000000)">
                <g id="Group-3" transform="translate(2.000000, 590.000000)">
                    <g id="Group-17" transform="translate(15.000000, 74.000000)">
                        <g id="my_location-24px" transform="translate(0.000000, 2.000000)">
                            <polygon id="Path" points="0 0 16 0 16 16 0 16"></polygon>
                            <path d="M8,5.33333333 C6.52666667,5.33333333 5.33333333,6.52666667 5.33333333,8 C5.33333333,9.47333333 6.52666667,10.6666667 8,10.6666667 C9.47333333,10.6666667 10.6666667,9.47333333 10.6666667,8 C10.6666667,6.52666667 9.47333333,5.33333333 8,5.33333333 Z M13.96,7.33333333 C13.6533333,4.55333333 11.4466667,2.34666667 8.66666667,2.04 L8.66666667,0.666666667 L7.33333333,0.666666667 L7.33333333,2.04 C4.55333333,2.34666667 2.34666667,4.55333333 2.04,7.33333333 L0.666666667,7.33333333 L0.666666667,8.66666667 L2.04,8.66666667 C2.34666667,11.4466667 4.55333333,13.6533333 7.33333333,13.96 L7.33333333,15.3333333 L8.66666667,15.3333333 L8.66666667,13.96 C11.4466667,13.6533333 13.6533333,11.4466667 13.96,8.66666667 L15.3333333,8.66666667 L15.3333333,7.33333333 L13.96,7.33333333 Z M8,12.6666667 C5.42,12.6666667 3.33333333,10.58 3.33333333,8 C3.33333333,5.42 5.42,3.33333333 8,3.33333333 C10.58,3.33333333 12.6666667,5.42 12.6666667,8 C12.6666667,10.58 10.58,12.6666667 8,12.6666667 Z" id="Shape" fill="#3E66D0" fill-rule="nonzero"></path>
                        </g>
                    </g>
                </g>
            </g>
        </g>
    </g>
</svg>